# xmcd
#
# Track frame offsets:
#	150
#	17422
#	31745
#	51213
#	61145
#	78251
#	93930
#	107505
#	121695
#	133648
#	147405
#	160850
#
# Disc length: 2411
#
# Revision: 1
# Processed by: cddbd v1.5.1PL0 Copyright (c) Steve Scherf et al.
# Submitted via: CDex 1.50
# Normalized: r0:DSETVAR1,TDELIM( - )
#
DISCID=8909690c
DTITLE=Various Artist - Lovesick Highway
DYEAR=2003
DGENRE=Country
TTITLE0=The Mavericks - What a Crying Shame
TTITLE1=Kelly Willis - Too Much to Ask
TTITLE2=John Hiatt - Riding With the King
TTITLE3=Joe Ely - Fingernails
TTITLE4=Allison Moorer - Send Me Down an Angel
TTITLE5=Shelby Lynne - Lookin' Up
TTITLE6=Steve Earle - Devil's Right Hand
TTITLE7=Jayhawks - See Him On the Street
TTITLE8=Nanci Griffith - I Wish It Would Rain
TTITLE9=Asleep at the Wheel - New San Antonio Rose
TTITLE10=Whiskytown - Jacksonville Skyline
TTITLE11=Tift Merritt - Bramble Rose
EXTD=YEAR: 2003
EXTT0=
EXTT1=
EXTT2=
EXTT3=
EXTT4=
EXTT5=
EXTT6=
EXTT7=
EXTT8=
EXTT9=
EXTT10=
EXTT11=
PLAYORDER=
